# xmcd
#
# Track frame offsets:
#	182
#	14622
#	28930
#	41170
#	55580
#	69540
#	84125
#	97137
#	109267
#	128832
#	140865
#	157580
#	170420
#
# Disc length: 2492 seconds
# Revision: 8
# Processed by: cddbd v1.5.2PL0 Copyright (c) Steve Scherf et al.
# Submitted via: dBpowerAMP V12.0
#
DISCID=ae09ba0d
DTITLE=The Derailers - Full Western Dress
DYEAR=1999
DGENRE=Country
TTITLE0=The Right Place
TTITLE1=Long On Love
TTITLE2=Whatever Made You Change Your Mind
TTITLE3=The Lost and Found
TTITLE4=Me, Myself, and I
TTITLE5=Just To Spend the Night With You
TTITLE6=(I'm Gonna) Love, Love, Love You
TTITLE7=Someone Else's Problem
TTITLE8=Play Me the Waltz of the Angels
TTITLE9=Then She Kissed Me
TTITLE10=Longing
TTITLE11=Hold On Fool Heart
TTITLE12=Knee Deep in the Blues
EXTD=
EXTT0=
EXTT1=
EXTT2=
EXTT3=
EXTT4=
EXTT5=
EXTT6=
EXTT7=
EXTT8=
EXTT9=
EXTT10=
EXTT11=
EXTT12=
PLAYORDER=
